<svg xmlns="http://www.w3.org/2000/svg" width="512" height="512" viewBox="0 0 512 512">
  <rect width="512" height="512" rx="114" fill="#f7efdd"/>
  <path d="M 229.567 234.409 Q 229.381 233.935 229.299 233.689 Q 229.217 233.444 229.146 233.190 Q 229.076 232.936 229.017 232.675 Q 228.959 232.413 228.913 232.145 Q 228.866 231.876 228.833 231.601 Q 228.800 231.326 228.780 231.045 Q 228.759 230.764 228.753 230.478 Q 228.746 230.191 228.753 229.900 Q 228.761 229.609 228.782 229.313 Q 228.804 229.018 228.840 228.719 Q 228.876 228.420 228.926 228.118 Q 228.977 227.816 229.043 227.511 Q 229.109 227.207 229.190 226.901 Q 229.271 226.596 229.367 226.289 Q 229.463 225.982 229.575 225.675 Q 229.687 225.368 229.814 225.062 Q 229.942 224.756 230.085 224.450 Q 230.228 224.145 230.387 223.842 Q 230.546 223.539 230.721 223.238 Q 230.895 222.937 231.086 222.640 Q 231.277 222.343 231.483 222.050 Q 231.689 221.757 231.911 221.468 Q 232.133 221.180 232.371 220.897 Q 232.609 220.615 232.862 220.338 Q 233.115 220.062 233.383 219.792 Q 233.652 219.523 233.935 219.261 Q 234.219 219.000 234.518 218.747 Q 234.816 218.493 235.129 218.249 Q 235.442 218.005 235.770 217.771 Q 236.097 217.537 236.439 217.313 Q 236.780 217.090 237.135 216.877 Q 237.491 216.665 237.859 216.464 Q 238.228 216.264 238.609 216.076 Q 238.991 215.888 239.385 215.714 Q 239.779 215.539 240.184 215.378 Q 240.590 215.217 241.008 215.071 Q 241.425 214.925 241.854 214.793 Q 242.282 214.662 242.721 214.546 Q 243.160 214.431 243.609 214.331 Q 244.058 214.232 244.516 214.149 Q 244.974 214.066 245.440 214.000 Q 245.907 213.935 246.382 213.887 Q 246.857 213.839 247.339 213.810 Q 247.821 213.780 248.309 213.769 Q 248.798 213.758 249.293 213.766 Q 249.787 213.774 250.287 213.802 Q 250.787 213.829 251.291 213.876 Q 251.795 213.923 252.303 213.991 Q 252.811 214.058 253.322 214.146 Q 253.833 214.234 254.346 214.342 Q 254.858 214.450 255.372 214.580 Q 255.887 214.709 256.401 214.859 Q 256.916 215.010 257.430 215.182 Q 257.944 215.353 258.456 215.546 Q 258.969 215.739 259.480 215.954 Q 259.990 216.169 260.498 216.405 Q 261.006 216.641 261.509 216.899 Q 262.013 217.157 262.512 217.437 Q 263.011 217.716 263.504 218.017 Q 263.997 218.318 264.484 218.641 Q 264.970 218.964 265.449 219.308 Q 265.928 219.652 266.399 220.017 Q 266.870 220.382 267.331 220.769 Q 267.793 221.155 268.244 221.563 Q 268.695 221.970 269.136 222.398 Q 269.576 222.826 270.004 223.274 Q 270.432 223.723 270.848 224.191 Q 271.263 224.659 271.665 225.147 Q 272.067 225.635 272.454 226.142 Q 272.841 226.650 273.213 227.176 Q 273.585 227.702 273.941 228.246 Q 274.297 228.791 274.635 229.353 Q 274.974 229.915 275.295 230.495 Q 275.615 231.074 275.918 231.671 Q 276.220 232.267 276.502 232.880 Q 276.785 233.492 277.048 234.120 Q 277.310 234.748 277.552 235.391 Q 277.794 236.034 278.014 236.691 Q 278.234 237.348 278.432 238.019 Q 278.630 238.689 278.805 239.372 Q 278.980 240.055 279.132 240.750 Q 279.283 241.445 279.411 242.151 Q 279.538 242.857 279.641 243.573 Q 279.743 244.290 279.821 245.015 Q 279.898 245.741 279.950 246.475 Q 280.001 247.209 280.027 247.950 Q 280.052 248.692 280.051 249.440 Q 280.049 250.188 280.021 250.941 Q 279.992 251.695 279.937 252.453 Q 279.881 253.212 279.797 253.974 Q 279.713 254.736 279.601 255.500 Q 279.489 256.265 279.349 257.031 Q 279.209 257.797 279.040 258.563 Q 278.871 259.330 278.673 260.096 Q 278.475 260.862 278.249 261.626 Q 278.022 262.391 277.766 263.152 Q 277.510 263.914 277.225 264.672 Q 276.940 265.429 276.626 266.182 Q 276.312 266.935 275.968 267.682 Q 275.625 268.429 275.252 269.168 Q 274.880 269.908 274.478 270.639 Q 274.077 271.371 273.646 272.093 Q 273.216 272.815 272.757 273.526 Q 272.298 274.238 271.810 274.937 Q 271.322 275.637 270.806 276.324 Q 270.291 277.011 269.747 277.684 Q 269.203 278.357 268.632 279.015 Q 268.061 279.673 267.462 280.315 Q 266.864 280.957 266.239 281.582 Q 265.613 282.207 264.962 282.813 Q 264.311 283.420 263.634 284.007 Q 262.956 284.594 262.254 285.161 Q 261.552 285.728 260.825 286.274 Q 260.099 286.819 259.348 287.342 Q 258.597 287.865 257.824 288.365 Q 257.050 288.865 256.254 289.340 Q 255.457 289.815 254.639 290.265 Q 253.821 290.715 252.983 291.139 Q 252.144 291.562 251.285 291.959 Q 250.426 292.355 249.548 292.724 Q 248.670 293.093 247.774 293.432 Q 246.878 293.772 245.965 294.082 Q 245.051 294.392 244.121 294.671 Q 243.192 294.951 242.247 295.199 Q 241.302 295.448 240.343 295.664 Q 239.384 295.880 238.411 296.064 Q 237.439 296.248 236.455 296.399 Q 235.470 296.549 234.475 296.666 Q 233.480 296.783 232.475 296.865 Q 231.470 296.947 230.457 296.995 Q 229.444 297.042 228.423 297.054 Q 227.403 297.066 226.376 297.043 Q 225.349 297.019 224.318 296.959 Q 223.287 296.899 222.252 296.802 Q 221.217 296.706 220.180 296.572 Q 219.143 296.439 218.105 296.268 Q 217.067 296.098 216.029 295.890 Q 214.992 295.682 213.956 295.436 Q 212.921 295.191 211.888 294.908 Q 210.856 294.625 209.828 294.304 Q 208.800 293.983 207.778 293.625 Q 206.756 293.267 205.741 292.870 Q 204.726 292.474 203.720 292.041 Q 202.714 291.607 201.718 291.136 Q 200.722 290.665 199.737 290.157 Q 198.753 289.648 197.781 289.103 Q 196.809 288.558 195.851 287.976 Q 194.894 287.394 193.952 286.775 Q 193.010 286.157 192.085 285.502 Q 191.160 284.848 190.253 284.158 Q 189.346 283.468 188.459 282.743 Q 187.572 282.018 186.706 281.259 Q 185.840 280.499 184.996 279.706 Q 184.153 278.913 183.333 278.086 Q 182.513 277.259 181.717 276.400 Q 180.922 275.541 180.153 274.650 Q 179.384 273.759 178.643 272.837 Q 177.901 271.915 177.188 270.963 Q 176.476 270.011 175.793 269.030 Q 175.110 268.048 174.458 267.038 Q 173.806 266.029 173.186 264.992 Q 172.566 263.954 171.979 262.891 Q 171.393 261.827 170.840 260.739 Q 170.288 259.650 169.771 258.537 Q 169.255 257.424 168.774 256.288 Q 168.294 255.153 167.851 253.995 Q 167.407 252.837 167.003 251.659 Q 166.598 250.481 166.232 249.283 Q 165.866 248.086 165.541 246.870 Q 165.215 245.655 164.930 244.423 Q 164.645 243.190 164.402 241.943 Q 164.159 240.696 163.958 239.434 Q 163.757 238.173 163.599 236.899 Q 163.440 235.626 163.326 234.341 Q 163.211 233.056 163.141 231.762 Q 163.070 230.468 163.045 229.166 Q 163.019 227.864 163.038 226.555 Q 163.057 225.247 163.122 223.934 Q 163.186 222.620 163.297 221.304 Q 163.407 219.987 163.564 218.669 Q 163.720 217.351 163.923 216.033 Q 164.126 214.715 164.376 213.398 Q 164.625 212.082 164.921 210.768 Q 165.217 209.455 165.560 208.147 Q 165.903 206.838 166.292 205.536 Q 166.681 204.234 167.117 202.941 Q 167.554 201.647 168.036 200.364 Q 168.519 199.080 169.048 197.808 Q 169.577 196.536 170.152 195.277 Q 170.727 194.018 171.348 192.774 Q 171.969 191.530 172.635 190.303 Q 173.302 189.076 174.013 187.867 Q 174.724 186.658 175.480 185.469 Q 176.236 184.279 177.036 183.112 Q 177.837 181.944 178.680 180.800 Q 179.523 179.655 180.410 178.536 Q 181.296 177.416 182.224 176.323 Q 183.153 175.229 184.122 174.164 Q 185.092 173.099 186.102 172.063 Q 187.112 171.027 188.162 170.022 Q 189.212 169.017 190.300 168.045 Q 191.388 167.072 192.514 166.134 Q 193.640 165.196 194.802 164.293 Q 195.965 163.390 197.163 162.523 Q 198.361 161.657 199.593 160.829 Q 200.825 160.001 202.090 159.213 Q 203.356 158.424 204.653 157.676 Q 205.950 156.929 207.277 156.223 Q 208.605 155.517 209.962 154.855 Q 211.318 154.192 212.703 153.574 Q 214.087 152.956 215.498 152.384 Q 216.908 151.811 218.344 151.285 Q 219.779 150.760 221.238 150.281 Q 222.696 149.803 224.176 149.373 Q 225.656 148.944 227.156 148.564 Q 228.657 148.184 230.175 147.854 Q 231.693 147.524 233.229 147.245 Q 234.764 146.967 236.314 146.740 Q 237.863 146.514 239.427 146.339 Q 240.990 146.165 242.564 146.045 Q 244.138 145.924 245.722 145.857 Q 247.306 145.790 248.898 145.777 Q 250.489 145.764 252.087 145.807 Q 253.684 145.849 255.285 145.946 Q 256.887 146.043 258.490 146.196 Q 260.093 146.348 261.696 146.557 Q 263.300 146.765 264.901 147.029 Q 266.503 147.293 268.100 147.613 Q 269.698 147.934 271.290 148.310 Q 272.882 148.686 274.466 149.118 Q 276.050 149.550 277.624 150.038 Q 279.199 150.526 280.762 151.070 Q 282.324 151.614 283.873 152.213 Q 285.422 152.813 286.956 153.467 Q 288.489 154.121 290.005 154.831 Q 291.521 155.540 293.017 156.304 Q 294.513 157.067 295.988 157.885 Q 297.463 158.702 298.914 159.573 Q 300.365 160.444 301.791 161.367 Q 303.217 162.290 304.616 163.266 Q 306.014 164.241 307.384 165.267 Q 308.753 166.294 310.092 167.370 Q 311.430 168.447 312.736 169.572 Q 314.041 170.698 315.312 171.872 Q 316.583 173.047 317.818 174.268 Q 319.052 175.489 320.248 176.757 Q 321.445 178.024 322.601 179.337 Q 323.757 180.649 324.872 182.005 Q 325.987 183.361 327.059 184.760 Q 328.130 186.158 329.157 187.598 Q 330.184 189.037 331.164 190.516 Q 332.145 191.995 333.077 193.512 Q 334.010 195.029 334.893 196.583 Q 335.776 198.136 336.609 199.724 Q 337.442 201.313 338.222 202.934 Q 339.003 204.556 339.730 206.209 Q 340.457 207.862 341.129 209.545 Q 341.802 211.228 342.419 212.939 Q 343.035 214.650 343.595 216.386 Q 344.155 218.123 344.657 219.884 Q 345.159 221.646 345.602 223.429 Q 346.045 225.212 346.428 227.016 Q 346.811 228.819 347.133 230.641 Q 347.455 232.463 347.716 234.301 Q 347.977 236.139 348.175 237.991 Q 348.374 239.844 348.509 241.708 Q 348.645 243.572 348.717 245.446 Q 348.788 247.320 348.796 249.202 Q 348.804 251.083 348.748 252.970 Q 348.691 254.858 348.570 256.748 Q 348.448 258.638 348.262 260.530 Q 348.075 262.421 347.824 264.312 Q 347.572 266.202 347.254 268.089 Q 346.937 269.975 346.554 271.856 Q 346.172 273.737 345.723 275.610 Q 345.275 277.483 344.761 279.346 Q 344.248 281.209 343.669 283.059 Q 343.090 284.909 342.446 286.744 Q 341.803 288.579 341.094 290.397 Q 340.386 292.215 339.613 294.014 Q 338.841 295.812 338.005 297.589 Q 337.169 299.366 336.270 301.119 Q 335.371 302.872 334.409 304.599 Q 333.447 306.325 332.424 308.024 Q 331.401 309.722 330.317 311.390 Q 329.233 313.057 328.089 314.692 Q 326.946 316.327 325.743 317.927 Q 324.540 319.527 323.279 321.090 Q 322.019 322.653 320.701 324.177 Q 319.384 325.701 318.011 327.183 Q 316.638 328.666 315.211 330.105 Q 313.784 331.545 312.304 332.939 Q 310.824 334.333 309.293 335.680 Q 307.761 337.027 306.180 338.325 Q 304.599 339.623 302.969 340.870 Q 301.339 342.118 299.663 343.312 Q 297.986 344.507 296.265 345.647 Q 294.543 346.787 292.779 347.871 Q 291.014 348.955 289.208 349.982 Q 287.402 351.008 285.556 351.975 Q 283.710 352.942 281.827 353.849 Q 279.944 354.755 278.025 355.599 Q 276.106 356.443 274.153 357.224 Q 272.201 358.005 270.217 358.720 Q 268.233 359.436 266.220 360.086 Q 264.207 360.735 262.167 361.318 Q 260.126 361.900 258.061 362.414 Q 255.996 362.928 253.909 363.373 Q 251.821 363.817 249.714 364.192 Q 247.606 364.566 245.481 364.869 Q 243.355 365.172 241.214 365.403 Q 239.074 365.635 236.920 365.793 Q 234.766 365.952 232.602 366.037 Q 230.438 366.122 228.265 366.134 Q 226.093 366.145 223.916 366.083 Q 221.738 366.020 219.557 365.883 Q 217.377 365.746 215.196 365.534 Q 213.015 365.322 210.836 365.035 Q 208.658 364.748 206.484 364.385 Q 204.310 364.023 202.143 363.586 Q 199.977 363.149 197.821 362.636 Q 195.664 362.124 193.520 361.537 Q 191.376 360.950 189.248 360.288 Q 187.119 359.626 185.008 358.891 Q 182.897 358.155 180.807 357.345 Q 178.717 356.535 176.649 355.653 Q 174.582 354.770 172.540 353.814 Q 170.498 352.859 168.484 351.831 Q 166.470 350.804 164.487 349.706 Q 162.504 348.607 160.554 347.439 Q 158.604 346.270 156.689 345.033 Q 154.775 343.795 152.899 342.489 Q 151.022 341.183 149.186 339.811 Q 147.350 338.438 145.557 337.000 Q 143.764 335.561 142.017 334.058 Q 140.269 332.556 138.569 330.990 Q 136.868 329.424 135.218 327.797 Q 133.568 326.170 131.969 324.483 Q 130.371 322.797 128.826 321.051 Q 127.282 319.306 125.794 317.505 Q 124.306 315.703 122.876 313.847 Q 121.447 311.991 120.077 310.082 Q 118.708 308.173 117.401 306.214 Q 116.094 304.254 114.851 302.246 Q 113.608 300.237 112.431 298.182 Q 111.254 296.127 110.145 294.028 Q 109.035 291.928 107.995 289.787 Q 106.955 287.645 105.986 285.463 Q 105.017 283.282 104.121 281.063 Q 103.224 278.843 102.401 276.589 Q 101.578 274.335 100.831 272.048 Q 100.083 269.761 99.412 267.443 Q 98.741 265.126 98.148 262.781 Q 97.555 260.436 97.040 258.066 Q 96.526 255.696 96.091 253.304 Q 95.656 250.912 95.302 248.500 Q 94.948 246.088 94.676 243.659 Q 94.404 241.230 94.214 238.787 Q 94.023 236.344 93.916 233.890 Q 93.809 231.435 93.786 228.973 Q 93.762 226.510 93.822 224.041 Q 93.883 221.572 94.027 219.101 Q 94.172 216.629 94.401 214.158 Q 94.630 211.686 94.944 209.218 Q 95.258 206.750 95.657 204.287 Q 96.056 201.824 96.539 199.370 Q 97.023 196.917 97.591 194.475 Q 98.159 192.032 98.812 189.605 Q 99.464 187.177 100.201 184.768 Q 100.937 182.358 101.757 179.968 Q 102.578 177.579 103.481 175.213 Q 104.384 172.846 105.370 170.507 Q 106.355 168.167 107.423 165.856 Q 108.490 163.545 109.638 161.267 Q 110.786 158.988 112.014 156.744 Q 113.242 154.500 114.549 152.294 Q 115.855 150.087 117.240 147.921 Q 118.624 145.756 120.085 143.633 Q 121.546 141.510 123.082 139.433 Q 124.618 137.356 126.228 135.327 Q 127.838 133.299 129.519 131.322 Q 131.201 129.344 132.954 127.420 Q 134.706 125.497 136.527 123.629 Q 138.348 121.761 140.236 119.952 Q 142.125 118.143 144.078 116.395 Q 146.031 114.648 148.048 112.963 Q 150.064 111.278 152.142 109.659 Q 154.219 108.040 156.356 106.489 Q 158.492 104.938 160.686 103.457 Q 162.879 101.976 165.126 100.567 Q 167.374 99.158 169.674 97.823 Q 171.974 96.488 174.323 95.229 Q 176.673 93.970 179.069 92.789 Q 181.466 91.607 183.907 90.506 Q 186.348 89.404 188.831 88.383 Q 191.314 87.363 193.836 86.425 Q 196.358 85.487 198.916 84.634 Q 201.475 83.780 204.067 83.013 Q 206.659 82.245 209.282 81.564 Q 211.905 80.883 214.556 80.290 Q 217.206 79.698 219.882 79.194 Q 222.557 78.691 225.255 78.278 Q 227.952 77.865 230.668 77.543 Q 233.384 77.221 236.116 76.991 Q 238.848 76.760 241.592 76.623 Q 244.336 76.486 247.090 76.442 Q 249.844 76.397 252.604 76.447 Q 255.364 76.497 258.127 76.640 Q 260.890 76.784 263.653 77.022 Q 266.415 77.260 269.175 77.592 Q 271.934 77.925 274.687 78.352 Q 277.440 78.779 280.183 79.300 Q 282.926 79.822 285.656 80.438 Q 288.385 81.054 291.099 81.763 Q 293.812 82.473 296.506 83.277 Q 299.200 84.080 301.871 84.977 Q 304.542 85.873 307.187 86.862 Q 309.831 87.851 312.447 88.932 Q 315.063 90.012 317.646 91.184 Q 320.229 92.355 322.776 93.616 Q 325.324 94.878 327.833 96.228 Q 330.342 97.578 332.808 99.016 Q 335.275 100.454 337.697 101.978 Q 340.119 103.502 342.494 105.111 Q 344.868 106.721 347.191 108.413 Q 349.514 110.106 351.783 111.880 Q 354.053 113.654 356.265 115.509 Q 358.478 117.364 360.631 119.296 Q 362.784 121.229 364.874 123.239 Q 366.965 125.248 368.991 127.331 Q 371.016 129.415 372.974 131.571 Q 374.932 133.727 376.820 135.953 Q 378.708 138.179 380.523 140.473 Q 382.337 142.767 384.077 145.126 Q 385.817 147.485 387.479 149.907 Q 389.141 152.330 390.724 154.812 Q 392.306 157.295 393.806 159.835 Q 395.307 162.375 396.723 164.971 Q 398.139 167.566 399.469 170.214 Q 400.799 172.861 402.041 175.558 Q 403.283 178.255 404.436 180.999 Q 405.588 183.742 406.648 186.529 Q 407.709 189.316 408.677 192.144 Q 409.644 194.971 410.517 197.836 Q 411.389 200.700 412.166 203.599 Q 412.942 206.498 413.622 209.428 Q 414.301 212.357 414.881 215.314 Q 415.462 218.271 415.942 221.253 Q 416.423 224.234 416.803 227.237 Q 417.183 230.239 417.461 233.259 Q 417.740 236.279 417.916 239.312 Q 418.092 242.346 418.165 245.391 Q 418.238 248.435 418.208 251.487 Q 418.177 254.538 418.043 257.593 Q 417.909 260.648 417.671 263.703 Q 417.432 266.758 417.090 269.809 Q 416.747 272.861 416.300 275.905 Q 415.853 278.949 415.302 281.983 Q 414.750 285.017 414.095 288.036 Q 413.440 291.055 412.681 294.057 Q 411.922 297.058 411.060 300.038 Q 410.198 303.018 409.233 305.973 Q 408.268 308.928 407.202 311.855 Q 406.135 314.782 404.967 317.676 Q 403.799 320.571 402.531 323.430 Q 401.263 326.289 399.896 329.109 Q 398.529 331.929 397.064 334.706 Q 395.599 337.484 394.038 340.216 Q 392.476 342.947 390.819 345.630 Q 389.163 348.313 387.412 350.943 Q 385.662 353.573 383.820 356.147 Q 381.977 358.721 380.045 361.236 Q 378.112 363.752 376.092 366.205 Q 374.071 368.658 371.964 371.046 Q 369.857 373.434 367.666 375.753 Q 365.474 378.073 363.201 380.321 Q 360.928 382.569 358.575 384.744 Q 356.222 386.918 353.792 389.015 Q 351.362 391.112 348.857 393.130 Q 346.353 395.147 343.776 397.082 Q 341.199 399.017 338.552 400.867 Q 335.906 402.717 333.193 404.480 Q 330.481 406.243 327.704 407.916 Q 324.927 409.589 322.090 411.169 Q 319.253 412.750 316.358 414.237 Q 313.463 415.723 310.514 417.113 Q 307.564 418.503 304.564 419.795 Q 301.563 421.087 298.514 422.278 Q 295.466 423.469 292.372 424.559 Q 289.279 425.648 286.144 426.634 Q 283.010 427.619 279.837 428.500 Q 276.665 429.380 273.458 430.154 Q 270.252 430.928 267.015 431.593 Q 263.778 432.259 260.514 432.816 Q 257.249 433.372 253.962 433.819 Q 250.675 434.265 247.368 434.600 Q 244.061 434.935 240.738 435.158 Q 237.415 435.382 234.080 435.492 Q 230.746 435.603 227.403 435.600 Q 224.060 435.597 220.713 435.481 Q 217.366 435.364 214.018 435.134 Q 210.670 434.904 207.326 434.559 Q 203.982 434.215 200.645 433.756 Q 197.308 433.298 193.982 432.725 Q 190.657 432.153 187.346 431.466 Q 184.036 430.780 180.744 429.980 Q 177.453 429.180 174.184 428.268 Q 170.916 427.355 167.674 426.330 Q 164.433 425.305 161.222 424.168 Q 158.011 423.032 154.834 421.785 Q 151.657 420.537 148.519 419.181 Q 145.381 417.824 142.285 416.359 Q 139.189 414.894 136.139 413.322 Q 133.089 411.749 130.088 410.072 Q 127.087 408.394 124.140 406.612 Q 121.192 404.830 118.302 402.945 Q 115.411 401.061 112.581 399.076 Q 109.751 397.091 106.985 395.007 Q 104.218 392.924 101.520 390.743 L 98.821 388.563" fill="none" stroke="#6f4a2f" stroke-width="24" stroke-linecap="round" stroke-linejoin="round"/>
</svg>